<?xml version="1.0" encoding="utf-8"?>
<!-- Generator: Adobe Illustrator 23.0.0, SVG Export Plug-In . SVG Version: 6.00 Build 0)  -->
<svg version="1.1" id="Warstwa_1" focusable="false"
	 xmlns="http://www.w3.org/2000/svg" xmlns:xlink="http://www.w3.org/1999/xlink" x="0px" y="0px" viewBox="0 0 512 512"
	 style="enable-background:new 0 0 512 512;" xml:space="preserve">
<style type="text/css">
	.st0{fill:#0066FF;}
</style>
<path class="st0" d="M61.8,401l17.5-20.1c3.5-3.9,5.3-9,5.1-14.2v-3.3c0-7.4-3.8-11.4-11.3-11.4H16c-4.4,0-8,3.6-8,8v16
	c0,4.4,3.6,8,8,8h22.8c-3.9,3.9-7.6,8-11,12.3l-5.6,7c-4,5.1-5.3,10.1-2.8,14.9l1,1.9c3,5.8,6.3,7.9,12.3,7.9h4.7
	c10.3,0,15.9,2.4,15.9,9.1c0,4.7-4.2,8.2-14.4,8.2c-5.3,0-10.6-1.1-15.5-3.1c-6.5-3.9-11.7-3.5-15.6,3.1l-5.6,9.3
	c-3.7,6.1-3.2,11.7,2.6,15.9c7.7,4.7,20.4,9.4,37,9.4c34.2,0,48.5-22.8,48.5-44.1C90.5,421.5,81.4,406.1,61.8,401z M496,224H176
	c-8.8,0-16,7.2-16,16v32c0,8.8,7.2,16,16,16h320c8.8,0,16-7.2,16-16v-32C512,231.2,504.8,224,496,224z M496,64H176
	c-8.8,0-16,7.2-16,16v32c0,8.8,7.2,16,16,16h320c8.8,0,16-7.2,16-16V80C512,71.2,504.8,64,496,64z M496,384H176c-8.8,0-16,7.2-16,16
	v32c0,8.8,7.2,16,16,16h320c8.8,0,16-7.2,16-16v-32C512,391.2,504.8,384,496,384z M16,160h64c4.4,0,8-3.6,8-8v-16c0-4.4-3.6-8-8-8
	H64V40c0-4.4-3.6-8-8-8H32c-3,0-5.8,1.7-7.1,4.4l-8,16c-2,4-0.4,8.8,3.6,10.7c1.1,0.6,2.3,0.8,3.6,0.8h8v64H16c-4.4,0-8,3.6-8,8v16
	C8,156.4,11.6,160,16,160z M12.1,320H80c4.4,0,8-3.6,8-8v-16c0-4.4-3.6-8-8-8H41.3c3.3-10.3,48.3-18.7,48.3-56.4
	c0-29.1-25-39.6-44.5-39.6c-21.4,0-33.8,10-40.5,18.8c-4.4,5.6-3,10.8,2.8,15.4l8.6,6.9c5.6,4.6,11,2.5,16.1-2.4
	c2.5-2.5,5.9-3.9,9.5-3.8c3.3,0,9.3,1.6,9.3,8.8c0,12.7-51,21.8-51,69.1v4C0,316,5.1,320,12.1,320z"/>
</svg>
