<?xml version="1.0" encoding="utf-8"?>
<!-- Generator: Adobe Illustrator 23.0.0, SVG Export Plug-In . SVG Version: 6.00 Build 0)  -->
<svg version="1.1" id="Warstwa_1" focusable="false"
	 xmlns="http://www.w3.org/2000/svg" xmlns:xlink="http://www.w3.org/1999/xlink" x="0px" y="0px" viewBox="0 0 640 512"
	 style="enable-background:new 0 0 640 512;" xml:space="preserve">
<style type="text/css">
	.st0{fill:#0066FF;}
</style>
<path class="st0" d="M589.6,240l45.6-45.6c6.3-6.3,6.3-16.5,0-22.8l-22.8-22.8c-6.3-6.3-16.5-6.3-22.8,0L544,194.4l-45.6-45.6
	c-6.3-6.3-16.5-6.3-22.8,0l-22.8,22.8c-6.3,6.3-6.3,16.5,0,22.8l45.6,45.6l-45.6,45.6c-6.3,6.3-6.3,16.5,0,22.8l22.8,22.8
	c6.3,6.3,16.5,6.3,22.8,0l45.6-45.6l45.6,45.6c6.3,6.3,16.5,6.3,22.8,0l22.8-22.8c6.3-6.3,6.3-16.5,0-22.8L589.6,240z M224,256
	c70.7,0,128-57.3,128-128S294.7,0,224,0S96,57.3,96,128S153.3,256,224,256z M313.6,288h-16.7c-22.2,10.2-46.9,16-72.9,16
	s-50.6-5.8-72.9-16h-16.7C60.2,288,0,348.2,0,422.4V464c0,26.5,21.5,48,48,48h352c26.5,0,48-21.5,48-48v-41.6
	C448,348.2,387.8,288,313.6,288z"/>
</svg>
